<svg width="13" height="8" viewBox="0 0 13 8" fill="none" xmlns="http://www.w3.org/2000/svg">
<path d="M6.01476 7.60013L0.247803 1.83307C0.114312 1.69968 0.0407714 1.52163 0.0407714 1.33177C0.0407714 1.14191 0.114312 0.963853 0.247803 0.830468L0.672401 0.405764C0.949075 0.129406 1.39875 0.129406 1.675 0.405764L6.51774 5.24851L11.3659 0.400391C11.4993 0.267006 11.6773 0.193359 11.8671 0.193359C12.057 0.193359 12.235 0.267006 12.3686 0.400391L12.7931 0.825095C12.9265 0.958585 13.0001 1.13654 13.0001 1.32639C13.0001 1.51625 12.9265 1.69431 12.7931 1.8277L7.02084 7.60013C6.88692 7.73383 6.70813 7.80726 6.51806 7.80684C6.32725 7.80726 6.14856 7.73383 6.01476 7.60013Z" fill="#CDA341"/>
</svg>
