<svg width="16" height="22" viewBox="0 0 16 22" fill="none" xmlns="http://www.w3.org/2000/svg">
<path d="M14.571 0.415039H1.43229C0.64172 0.415039 0 1.05676 0 1.84733V20.1562C0 20.9468 0.64172 21.5852 1.43229 21.5852H14.571C15.3583 21.5852 16 20.9468 16 20.1562V1.84733C16 1.05676 15.3616 0.415039 14.571 0.415039ZM5.1503 18.8562C5.1503 19.144 4.91875 19.3755 4.63097 19.3755H3.02998C2.7422 19.3755 2.51065 19.144 2.51065 18.8562V17.4405C2.51065 17.1527 2.7422 16.9211 3.02998 16.9211H4.63097C4.91875 16.9211 5.1503 17.1527 5.1503 17.4405V18.8562ZM5.1503 14.8868C5.1503 15.1713 4.91875 15.4028 4.63097 15.4028H3.02998C2.7422 15.4028 2.51065 15.1713 2.51065 14.8868V13.4678C2.51065 13.1833 2.7422 12.9517 3.02998 12.9517H4.63097C4.91875 12.9517 5.1503 13.1833 5.1503 13.4678V14.8868ZM5.1503 10.9174C5.1503 11.2019 4.91875 11.4334 4.63097 11.4334H3.02998C2.7422 11.4334 2.51065 11.2019 2.51065 10.9174V9.49835C2.51065 9.21388 2.7422 8.97902 3.02998 8.97902H4.63097C4.91875 8.97902 5.1503 9.21388 5.1503 9.49835V10.9174ZM9.31817 18.8562C9.31817 19.144 9.08662 19.3755 8.80215 19.3755H7.19785C6.91338 19.3755 6.68183 19.144 6.68183 18.8562V17.4372C6.68183 17.1527 6.91338 16.9211 7.19785 16.9211H8.80215C9.08662 16.9211 9.31817 17.1527 9.31817 17.4372V18.8562ZM9.31817 14.8868C9.31817 15.1713 9.08662 15.4028 8.80215 15.4028H7.19785C6.91338 15.4028 6.68183 15.1713 6.68183 14.8868V13.4678C6.68183 13.1833 6.91338 12.9517 7.19785 12.9517H8.80215C9.08662 12.9517 9.31817 13.1833 9.31817 13.4678V14.8868ZM9.31817 10.9174C9.31817 11.2019 9.08662 11.4334 8.80215 11.4334H7.19785C6.91338 11.4334 6.68183 11.2019 6.68183 10.9174V9.49835C6.68183 9.21388 6.91338 8.97902 7.19785 8.97902H8.80215C9.08662 8.97902 9.31817 9.21388 9.31817 9.49835V10.9174ZM13.4894 18.8562C13.4894 19.144 13.2578 19.3755 12.9733 19.3755H11.369C11.0846 19.3755 10.853 19.144 10.853 18.8562V17.4372C10.853 17.1527 11.0846 16.9211 11.369 16.9211H12.9733C13.2578 16.9211 13.4894 17.1527 13.4894 17.4372V18.8562ZM13.4894 14.8868C13.4894 15.1713 13.2578 15.4028 12.9733 15.4028H11.369C11.0846 15.4028 10.853 15.1713 10.853 14.8868V13.4678C10.853 13.1833 11.0846 12.9517 11.369 12.9517H12.9733C13.2578 12.9517 13.4894 13.1833 13.4894 13.4678V14.8868ZM13.4894 10.9174C13.4894 11.2019 13.2578 11.4334 12.9733 11.4334H11.369C11.0846 11.4334 10.853 11.2019 10.853 10.9174V9.49835C10.853 9.21388 11.0846 8.97902 11.369 8.97902H12.9733C13.2578 8.97902 13.4894 9.21388 13.4894 9.49835V10.9174ZM14.0153 5.98874C14.0153 6.43199 13.6547 6.79255 13.2115 6.79255H2.78851C2.34526 6.79255 1.9847 6.43199 1.9847 5.98874V3.20354C1.9847 2.76029 2.34526 2.40305 2.78851 2.40305H13.2115C13.6547 2.40305 14.0153 2.76029 14.0153 3.20354V5.98874Z" fill="white"/>
</svg>
