<svg width="27" height="26" viewBox="0 0 27 26" fill="none" xmlns="http://www.w3.org/2000/svg">
<path fill-rule="evenodd" clip-rule="evenodd" d="M3.375 9.74984C3.375 7.3566 5.38972 5.4165 7.875 5.4165H19.125C21.6102 5.4165 23.625 7.3566 23.625 9.74984V18.4165C23.625 20.8097 21.6102 22.7498 19.125 22.7498H7.875C5.38972 22.7498 3.375 20.8097 3.375 18.4165V9.74984ZM7.875 7.58317C6.63236 7.58317 5.625 8.55322 5.625 9.74984V18.4165C5.625 19.6132 6.63236 20.5832 7.875 20.5832H19.125C20.3677 20.5832 21.375 19.6132 21.375 18.4165V9.74984C21.375 8.55322 20.3677 7.58317 19.125 7.58317H7.875Z" fill="#868686"/>
<path fill-rule="evenodd" clip-rule="evenodd" d="M9 3.25C9.62131 3.25 10.125 3.73503 10.125 4.33333V6.5C10.125 7.0983 9.62131 7.58333 9 7.58333C8.37868 7.58333 7.875 7.0983 7.875 6.5V4.33333C7.875 3.73503 8.37868 3.25 9 3.25Z" fill="#868686"/>
<path fill-rule="evenodd" clip-rule="evenodd" d="M18 3.25C18.6213 3.25 19.125 3.73503 19.125 4.33333V6.5C19.125 7.0983 18.6213 7.58333 18 7.58333C17.3787 7.58333 16.875 7.0983 16.875 6.5V4.33333C16.875 3.73503 17.3787 3.25 18 3.25Z" fill="#868686"/>
<path d="M10.125 10.8333C10.125 11.4317 9.62131 11.9167 9 11.9167C8.37868 11.9167 7.875 11.4317 7.875 10.8333C7.875 10.235 8.37868 9.75 9 9.75C9.62131 9.75 10.125 10.235 10.125 10.8333Z" fill="#868686"/>
<path d="M14.625 10.8333C14.625 11.4317 14.1213 11.9167 13.5 11.9167C12.8787 11.9167 12.375 11.4317 12.375 10.8333C12.375 10.235 12.8787 9.75 13.5 9.75C14.1213 9.75 14.625 10.235 14.625 10.8333Z" fill="#868686"/>
<path d="M19.125 10.8333C19.125 11.4317 18.6213 11.9167 18 11.9167C17.3787 11.9167 16.875 11.4317 16.875 10.8333C16.875 10.235 17.3787 9.75 18 9.75C18.6213 9.75 19.125 10.235 19.125 10.8333Z" fill="#868686"/>
<path d="M10.125 15.1668C10.125 15.7652 9.62131 16.2502 9 16.2502C8.37868 16.2502 7.875 15.7652 7.875 15.1668C7.875 14.5685 8.37868 14.0835 9 14.0835C9.62131 14.0835 10.125 14.5685 10.125 15.1668Z" fill="#868686"/>
</svg>
