<svg width="14" height="14" viewBox="0 0 14 14" fill="none" xmlns="http://www.w3.org/2000/svg">
<path d="M8.54193 7.00003L13.7763 1.7654C13.9203 1.6213 13.9998 1.42906 14 1.22407C14 1.01896 13.9206 0.826488 13.7763 0.682618L13.3176 0.224033C13.1734 0.079594 12.9812 0.000488281 12.776 0.000488281C12.5711 0.000488281 12.3788 0.079594 12.2346 0.224033L7.00023 5.45832L1.76559 0.224033C1.62161 0.079594 1.42925 0.000488281 1.22415 0.000488281C1.01927 0.000488281 0.82691 0.079594 0.682927 0.224033L0.224 0.682618C-0.0746667 0.981285 -0.0746667 1.46707 0.224 1.7654L5.45852 7.00003L0.224 12.2344C0.0799024 12.3788 0.000569106 12.571 0.000569106 12.776C0.000569106 12.981 0.0799024 13.1732 0.224 13.3174L0.682813 13.776C0.826797 13.9204 1.01927 13.9996 1.22403 13.9996C1.42914 13.9996 1.6215 13.9204 1.76548 13.776L7.00011 8.54163L12.2345 13.776C12.3787 13.9204 12.571 13.9996 12.7759 13.9996H12.7761C12.9811 13.9996 13.1733 13.9204 13.3175 13.776L13.7762 13.3174C13.9202 13.1733 13.9997 12.981 13.9997 12.776C13.9997 12.571 13.9202 12.3788 13.7762 12.2346L8.54193 7.00003Z" fill="white"/>
</svg>
