<svg width="18" height="18" viewBox="0 0 18 18" fill="none" xmlns="http://www.w3.org/2000/svg">
<path d="M7.30715 0.834473C6.41266 0.834473 5.62998 1.35573 5.24888 2.10849C5.1382 2.29978 5.10804 2.5272 5.16504 2.74073C5.22204 2.95425 5.36152 3.13639 5.55281 3.24707C5.7441 3.35775 5.97153 3.38791 6.18505 3.33091C6.39858 3.27391 6.58072 3.13442 6.6914 2.94313C6.77014 2.67542 7.00636 2.49746 7.30557 2.49746H16.8599C17.2284 2.49746 17.4993 2.76833 17.4993 3.13841V12.6927C17.5036 12.8243 17.4655 12.9538 17.3907 13.0621C17.3158 13.1705 17.2081 13.2519 17.0835 13.2943C16.984 13.3466 16.8961 13.4185 16.825 13.5056C16.754 13.5927 16.7012 13.6933 16.67 13.8013C16.6388 13.9093 16.6297 14.0225 16.6433 14.1341C16.6569 14.2457 16.6929 14.3534 16.7492 14.4508C16.8055 14.5481 16.8808 14.6331 16.9707 14.7006C17.0606 14.7681 17.1632 14.8167 17.2724 14.8436C17.3816 14.8705 17.4951 14.875 17.606 14.8569C17.717 14.8388 17.8232 14.7985 17.9182 14.7384C18.6568 14.3526 19.167 13.5762 19.167 12.6927V3.13841C19.167 1.87384 18.1229 0.834473 16.8599 0.834473H7.30715ZM3.14022 5.00298C1.87722 5.00298 0.83313 6.04235 0.83313 7.30534V16.8612C0.83313 18.1258 1.87722 19.1652 3.14022 19.1652H12.693C13.9575 19.1652 15.0016 18.1258 15.0016 16.8612V7.30691C15.0016 6.04392 13.9575 5.00455 12.693 5.00455L3.14022 5.00298ZM3.14022 6.66597H12.693C13.0631 6.66597 13.3339 6.93684 13.3339 7.30534V16.8612C13.3365 16.9461 13.3218 17.0306 13.2905 17.1096C13.2592 17.1885 13.2121 17.2602 13.152 17.3203C13.092 17.3803 13.0203 17.4275 12.9413 17.4587C12.8624 17.49 12.7779 17.5048 12.693 17.5022H3.14022C3.05547 17.5046 2.97112 17.4896 2.89236 17.4583C2.8136 17.4269 2.74208 17.3797 2.6822 17.3197C2.62233 17.2597 2.57535 17.188 2.54417 17.1092C2.51298 17.0304 2.49824 16.946 2.50085 16.8612V7.30691C2.50085 6.93841 2.77171 6.66754 3.14022 6.66754V6.66597Z" fill="white"/>
</svg>
