<svg width="20" height="20" viewBox="0 0 20 20" fill="none" xmlns="http://www.w3.org/2000/svg">
<path fill-rule="evenodd" clip-rule="evenodd" d="M8.31 0.25H11.69C11.907 0.25 12.096 0.25 12.274 0.278C12.6207 0.333543 12.9496 0.469462 13.2344 0.674881C13.5192 0.880301 13.7519 1.14952 13.914 1.461C13.998 1.621 14.057 1.8 14.126 2.005L14.237 2.34C14.3136 2.61216 14.4802 2.85032 14.7096 3.0156C14.9389 3.18088 15.2176 3.26351 15.5 3.25H18.5C18.6989 3.25 18.8897 3.32902 19.0303 3.46967C19.171 3.61032 19.25 3.80109 19.25 4C19.25 4.19891 19.171 4.38968 19.0303 4.53033C18.8897 4.67098 18.6989 4.75 18.5 4.75H1.5C1.30109 4.75 1.11032 4.67098 0.96967 4.53033C0.829018 4.38968 0.75 4.19891 0.75 4C0.75 3.80109 0.829018 3.61032 0.96967 3.46967C1.11032 3.32902 1.30109 3.25 1.5 3.25H4.59C4.8571 3.24359 5.11513 3.15177 5.32623 2.988C5.53733 2.82423 5.6904 2.59713 5.763 2.34L5.875 2.005C5.943 1.8 6.002 1.621 6.085 1.461C6.24719 1.1494 6.48009 0.880102 6.76505 0.674675C7.05001 0.469248 7.37911 0.333397 7.726 0.278C7.904 0.25 8.093 0.25 8.309 0.25H8.31ZM7.008 3.25C7.07822 3.11249 7.13675 2.96932 7.183 2.822L7.283 2.522C7.374 2.249 7.395 2.194 7.416 2.154C7.46999 2.05001 7.54758 1.96011 7.64258 1.89152C7.73757 1.82292 7.84731 1.77754 7.963 1.759C8.008 1.752 8.067 1.75 8.355 1.75H11.645C11.933 1.75 11.993 1.752 12.037 1.76C12.1526 1.77843 12.2623 1.82366 12.3573 1.89208C12.4522 1.9605 12.5299 2.05019 12.584 2.154C12.605 2.194 12.626 2.249 12.717 2.523L12.817 2.823L12.856 2.935C12.895 3.044 12.941 3.149 12.992 3.25H7.008Z" fill="white"/>
<path d="M3.91505 6.45017C3.90179 6.25165 3.81021 6.06654 3.66047 5.93554C3.51072 5.80455 3.31507 5.73841 3.11655 5.75167C2.91804 5.76493 2.73292 5.85651 2.60193 6.00626C2.47093 6.156 2.40479 6.35166 2.41805 6.55017L2.88205 13.5022C2.96705 14.7842 3.03605 15.8202 3.19805 16.6342C3.36705 17.4792 3.65305 18.1852 4.24505 18.7382C4.83605 19.2922 5.56005 19.5312 6.41505 19.6432C7.23705 19.7502 8.27505 19.7502 9.56105 19.7502H10.4401C11.7251 19.7502 12.7641 19.7502 13.5861 19.6432C14.4401 19.5312 15.1641 19.2922 15.7561 18.7382C16.3471 18.1852 16.6331 17.4782 16.8021 16.6342C16.9641 15.8212 17.0321 14.7842 17.1181 13.5022L17.5821 6.55017C17.5953 6.35166 17.5292 6.156 17.3982 6.00626C17.2672 5.85651 17.0821 5.76493 16.8836 5.75167C16.685 5.73841 16.4894 5.80455 16.3396 5.93554C16.1899 6.06654 16.0983 6.25165 16.0851 6.45017L15.6251 13.3502C15.5351 14.6972 15.4711 15.6352 15.3311 16.3402C15.1941 17.0252 15.0041 17.3872 14.7311 17.6432C14.4571 17.8992 14.0831 18.0652 13.3911 18.1552C12.6781 18.2482 11.7381 18.2502 10.3871 18.2502H9.61305C8.26305 18.2502 7.32305 18.2482 6.60905 18.1552C5.91705 18.0652 5.54305 17.8992 5.26905 17.6432C4.99605 17.3872 4.80605 17.0252 4.66905 16.3402C4.52905 15.6352 4.46505 14.6972 4.37505 13.3502L3.91505 6.45017Z" fill="white"/>
<path d="M7.42498 8.25423C7.62282 8.2344 7.82044 8.29395 7.97439 8.41977C8.12834 8.5456 8.22603 8.7274 8.24599 8.92523L8.74599 13.9252C8.76063 14.1203 8.69847 14.3134 8.57277 14.4633C8.44706 14.6132 8.26776 14.708 8.07311 14.7276C7.87846 14.7472 7.68387 14.6899 7.53084 14.568C7.37782 14.4462 7.27847 14.2693 7.25398 14.0752L6.75398 9.07523C6.73416 8.87739 6.7937 8.67977 6.91953 8.52582C7.04535 8.37187 7.22716 8.27418 7.42498 8.25423ZM12.575 8.25423C12.7726 8.27419 12.9543 8.37174 13.0801 8.52547C13.2059 8.6792 13.2655 8.87655 13.246 9.07423L12.746 14.0742C12.7212 14.268 12.6218 14.4444 12.469 14.566C12.3161 14.6875 12.1219 14.7447 11.9275 14.7253C11.7332 14.7059 11.5541 14.6114 11.4283 14.462C11.3025 14.3126 11.24 14.12 11.254 13.9252L11.754 8.92523C11.7739 8.72759 11.8715 8.54595 12.0252 8.42015C12.179 8.29436 12.3773 8.23468 12.575 8.25423Z" fill="white"/>
</svg>
