<svg width="14" height="16" viewBox="0 0 14 16" fill="none" xmlns="http://www.w3.org/2000/svg">
<path fill-rule="evenodd" clip-rule="evenodd" d="M5.76676 0.885254H8.23324C8.39159 0.885254 8.52951 0.885254 8.6594 0.905686C8.91241 0.946218 9.15242 1.0454 9.36023 1.1953C9.56804 1.3452 9.73788 1.54166 9.85616 1.76896C9.91746 1.88571 9.96051 2.01633 10.0109 2.16593L10.0919 2.41039C10.1477 2.60899 10.2693 2.78279 10.4367 2.9034C10.6041 3.024 10.8074 3.0843 11.0135 3.07444H13.2027C13.3479 3.07444 13.4871 3.1321 13.5897 3.23474C13.6923 3.33738 13.75 3.47659 13.75 3.62174C13.75 3.76689 13.6923 3.9061 13.5897 4.00874C13.4871 4.11138 13.3479 4.16904 13.2027 4.16904H0.797297C0.652145 4.16904 0.512938 4.11138 0.4103 4.00874C0.307661 3.9061 0.25 3.76689 0.25 3.62174C0.25 3.47659 0.307661 3.33738 0.4103 3.23474C0.512938 3.1321 0.652145 3.07444 0.797297 3.07444H3.05216C3.24707 3.06977 3.43536 3.00276 3.58941 2.88325C3.74346 2.76375 3.85516 2.59802 3.90813 2.41039L3.98986 2.16593C4.03949 2.01633 4.08254 1.88571 4.14311 1.76896C4.26146 1.54157 4.43142 1.34506 4.63936 1.19515C4.8473 1.04525 5.08746 0.946111 5.34059 0.905686C5.47049 0.885254 5.6084 0.885254 5.76603 0.885254H5.76676ZM4.81665 3.07444C4.86789 2.97409 4.9106 2.86962 4.94435 2.76212L5.01732 2.5432C5.08373 2.34398 5.09905 2.30385 5.11438 2.27466C5.15377 2.19877 5.2104 2.13317 5.27972 2.08312C5.34903 2.03306 5.42912 1.99994 5.51354 1.98642C5.54638 1.98131 5.58943 1.97985 5.79959 1.97985H8.20041C8.41057 1.97985 8.45435 1.98131 8.48646 1.98715C8.57081 2.00059 8.65085 2.0336 8.72016 2.08353C8.78948 2.13345 8.84614 2.19891 8.88562 2.27466C8.90094 2.30385 8.91627 2.34398 8.98267 2.54393L9.05565 2.76285L9.08411 2.84458C9.11257 2.92412 9.14613 3.00074 9.18335 3.07444H4.81665Z" fill="#1D1D1D"/>
<path d="M2.55944 5.40937C2.54977 5.26451 2.48294 5.12943 2.37366 5.03383C2.26439 4.93824 2.12162 4.88998 1.97675 4.89966C1.83189 4.90933 1.69681 4.97616 1.60122 5.08543C1.50563 5.19471 1.45736 5.33748 1.46704 5.48234L1.80563 10.5554C1.86766 11.4909 1.91801 12.2469 2.03623 12.8409C2.15955 13.4576 2.36825 13.9727 2.80025 14.3763C3.23152 14.7806 3.75985 14.955 4.38377 15.0367C4.98361 15.1148 5.74106 15.1148 6.6795 15.1148H7.32093C8.25863 15.1148 9.01682 15.1148 9.61666 15.0367C10.2398 14.955 10.7682 14.7806 11.2002 14.3763C11.6314 13.9727 11.8401 13.4568 11.9635 12.8409C12.0817 12.2477 12.1313 11.4909 12.1941 10.5554L12.5327 5.48234C12.5423 5.33748 12.4941 5.19471 12.3985 5.08543C12.3029 4.97616 12.1678 4.90933 12.0229 4.89966C11.8781 4.88998 11.7353 4.93824 11.626 5.03383C11.5168 5.12943 11.4499 5.26451 11.4403 5.40937L11.1046 10.4445C11.0389 11.4275 10.9922 12.1119 10.89 12.6264C10.7901 13.1263 10.6514 13.3904 10.4522 13.5772C10.2523 13.764 9.97933 13.8852 9.47436 13.9509C8.95406 14.0187 8.26812 14.0202 7.28225 14.0202H6.71744C5.73231 14.0202 5.04636 14.0187 4.52534 13.9509C4.02036 13.8852 3.74744 13.764 3.5475 13.5772C3.34828 13.3904 3.20963 13.1263 3.10966 12.6264C3.0075 12.1119 2.96079 11.4275 2.89512 10.4445L2.55944 5.40937Z" fill="#1D1D1D"/>
<path d="M5.12104 6.72587C5.26541 6.71141 5.40961 6.75486 5.52196 6.84668C5.6343 6.93849 5.70559 7.07116 5.72015 7.21552L6.08501 10.8642C6.0957 11.0065 6.05034 11.1474 5.95861 11.2568C5.86688 11.3662 5.73604 11.4354 5.594 11.4497C5.45196 11.464 5.30996 11.4222 5.19829 11.3333C5.08662 11.2443 5.01412 11.1153 4.99626 10.9736L4.63139 7.32498C4.61692 7.18061 4.66037 7.03641 4.75219 6.92406C4.84401 6.81172 4.97668 6.74043 5.12104 6.72587ZM8.87915 6.72587C9.02337 6.74044 9.15592 6.81162 9.24772 6.9238C9.33951 7.03599 9.38306 7.18 9.3688 7.32425L9.00393 10.9729C8.98584 11.1143 8.91331 11.243 8.80177 11.3317C8.69024 11.4204 8.54849 11.4622 8.40668 11.448C8.26486 11.4338 8.13417 11.3649 8.04238 11.2559C7.95059 11.1469 7.90496 11.0063 7.91517 10.8642L8.28004 7.21552C8.2946 7.0713 8.36579 6.93875 8.47797 6.84695C8.59015 6.75516 8.7349 6.71161 8.87915 6.72587Z" fill="#1D1D1D"/>
</svg>
