<svg width="16" height="16" viewBox="0 0 16 16" fill="none" xmlns="http://www.w3.org/2000/svg">
<g clip-path="url(#clip0_2338_2939)">
<path d="M14.8505 2.93427L12.805 0.8871C12.2897 0.371297 11.3931 0.370306 10.8758 0.888091L1.71256 10.1417C1.67208 10.1826 1.64254 10.233 1.62665 10.2883L0.263039 15.0651C0.248593 15.1158 0.246111 15.1693 0.25579 15.2211C0.26547 15.273 0.287046 15.322 0.318824 15.3641C0.350602 15.4062 0.391717 15.4404 0.438939 15.464C0.486161 15.4876 0.538204 15.4999 0.590981 15.4999C0.62227 15.4999 0.653911 15.4956 0.684528 15.4869L5.45722 14.1221C5.51249 14.1062 5.56286 14.0767 5.60369 14.0362L14.8505 4.86418C15.1082 4.60629 15.25 4.26374 15.25 3.89924C15.25 3.53473 15.1082 3.19215 14.8505 2.93427ZM9.39019 3.36793L10.6451 4.62281L4.09339 11.1745L3.62319 10.2338C3.59486 10.1772 3.55133 10.1296 3.49746 10.0963C3.4436 10.063 3.38154 10.0454 3.31823 10.0454H2.77229L9.39019 3.36793ZM1.08735 14.6626L1.53141 13.1082L2.64176 14.2185L1.08735 14.6626ZM5.02275 13.5384L3.39167 14.0043L1.74563 12.3583L2.21158 10.7272H3.10745L3.69504 11.9024C3.72803 11.9684 3.78154 12.0219 3.84752 12.0549L5.02272 12.6425L5.02275 13.5384ZM5.70459 12.9777V12.4317C5.70459 12.3026 5.63169 12.1847 5.51615 12.1268L4.57544 11.6566L11.1271 5.1049L12.382 6.35978L5.70459 12.9777ZM14.3694 4.39011L12.8662 5.87987L9.87007 2.88371L11.3588 1.38155C11.6165 1.12386 12.0653 1.12386 12.323 1.38155L14.3684 3.427C14.4972 3.55583 14.5682 3.72694 14.5682 3.90905C14.5682 4.09116 14.4972 4.26227 14.3694 4.39011Z" fill="black"/>
</g>
<defs>
<clipPath id="clip0_2338_2939">
<rect width="15" height="15" fill="white" transform="translate(0.25 0.5)"/>
</clipPath>
</defs>
</svg>
