<svg width="18" height="19" viewBox="0 0 18 19" fill="none" xmlns="http://www.w3.org/2000/svg">
<path d="M15.54 0.250237H2.46001C2.03685 0.249558 1.6224 0.370377 1.2659 0.598338C0.909395 0.826299 0.625832 1.15182 0.448906 1.53621C0.27198 1.9206 0.20913 2.34771 0.267824 2.76677C0.326517 3.18584 0.504287 3.57924 0.780009 3.90024L5.95001 9.93024C6.14001 10.1602 6.25001 10.4502 6.25001 10.7402V16.3802C6.25001 16.9902 6.56001 17.5502 7.08001 17.8702C7.36001 18.0402 7.68001 18.1302 8.00001 18.1302C8.27001 18.1302 8.53001 18.0702 8.78001 17.9402L10.78 16.9402C11.38 16.6402 11.75 16.0402 11.75 15.3702V10.7302C11.75 10.4302 11.86 10.1402 12.05 9.92024L17.22 3.89024C17.4957 3.56924 17.6735 3.17584 17.7322 2.75677C17.7909 2.33771 17.728 1.9106 17.5511 1.52621C17.3742 1.14182 17.0906 0.816299 16.7341 0.588338C16.3776 0.360377 15.9632 0.239558 15.54 0.240237V0.250237ZM16.08 2.92024L10.91 8.95024C10.48 9.45024 10.25 10.0802 10.25 10.7402V15.3802C10.25 15.4802 10.2 15.5602 10.11 15.6002L8.11001 16.6002C8.00001 16.6602 7.91001 16.6202 7.87001 16.5902C7.83001 16.5602 7.75001 16.5002 7.75001 16.3802V10.7402C7.75001 10.0802 7.52001 9.45024 7.09001 8.95024L1.92001 2.92024C1.81027 2.7921 1.74998 2.62894 1.75001 2.46024C1.75001 2.07024 2.07001 1.75024 2.46001 1.75024H15.54C15.93 1.75024 16.25 2.07024 16.25 2.46024C16.25 2.63024 16.19 2.79024 16.08 2.92024Z" fill="#828282"/>
</svg>
