<svg xmlns="http://www.w3.org/2000/svg" width="95" height="96" viewBox="0 0 95 96" fill="none"><g clip-path="url(#clip0_2_558)"><rect width="95" height="95" transform="translate(0 0.573608)" fill="#BEA364"></rect><rect x="23.6075" y="2.55771" width="47.785" height="91.0318" fill="#020202"></rect><path d="M67.1069 -4.21007H27.8867L20.467 3.20961V92.9375L27.8867 100.357H67.1135L74.5331 92.9375V3.20961L67.1069 -4.21007ZM33.402 9.50908L36.7429 6.16825H58.2902L61.6048 9.50908V16.4544H58.0794V10.873L56.946 9.70676H38.0871L36.9207 10.873V21.3239H33.402V9.50908ZM49.8492 53.0717H53.368V77.0637H49.8492V53.0717ZM30.7926 50.4754H28.6972V77.0637H25.1719V23.9333H45.1444V50.4754H39.5302V46.9501H41.6256V27.452H28.6972V46.9501H30.7926V50.4754ZM61.5981 86.6315L58.2836 89.9723H36.7363L33.3955 86.6315V30.0615H36.9207V85.2675L38.0871 86.4338H56.9395L58.0794 85.2675V50.4689H49.8492V46.9435H61.5981V86.6315ZM69.8217 77.0637H66.2963V32.4271L59.8321 38.3312L53.368 32.4271V44.4395H49.8426V23.8872L59.8321 33.3034L69.8217 23.8872V77.0637Z" fill="#BEA364"></path></g><defs><clipPath id="clip0_2_558"><rect width="95" height="95" fill="white" transform="translate(0 0.573608)"></rect></clipPath></defs></svg>