<svg xmlns="http://www.w3.org/2000/svg" width="210" height="107" viewBox="0 0 210 107" fill="none"><path d="M86.9663 34.5582C87.0034 35.0707 87.0407 35.4339 87.0407 35.8158C87.0407 40.2412 83.9382 43.3623 79.5129 43.3623C75.1436 43.3623 71.7524 40.027 71.7524 35.7973C71.7524 31.5676 75.1436 28.2324 79.4758 28.2324C82.8297 28.2324 85.606 29.9 86.5655 32.6949L82.8297 33.6358C82.159 32.1639 80.929 31.549 79.4758 31.549C77.1558 31.549 75.4697 33.4029 75.4697 35.7973C75.4697 38.1916 77.1746 40.0548 79.5317 40.0548C81.367 40.0548 82.6526 39.1139 83.1929 37.6046H78.4044V34.5582H86.9663ZM93.2733 43.0548V28.5024H96.9533V39.8965H104.024V43.0548H93.2733ZM123.477 35.7973C123.477 40.0548 119.993 43.3436 115.698 43.3436C111.394 43.3436 107.9 40.0548 107.9 35.7973C107.9 31.5676 111.384 28.2324 115.698 28.2324C119.993 28.2324 123.477 31.5676 123.477 35.7973ZM119.779 35.7973C119.779 33.4029 117.98 31.549 115.698 31.549C113.416 31.549 111.617 33.4029 111.617 35.7973C111.617 38.2102 113.416 40.0548 115.698 40.0548C117.98 40.0548 119.779 38.2102 119.779 35.7973ZM141.877 38.7878C141.877 41.3965 139.977 43.0548 136.874 43.0548H129.272V28.5024H136.315C139.185 28.5024 140.852 29.9746 140.852 32.3317C140.852 33.4961 140.396 34.4744 139.585 35.1078C140.946 35.7787 141.877 36.9619 141.877 38.7878ZM132.952 34.1297H135.673C136.548 34.1297 137.145 33.5985 137.145 32.7507C137.145 31.9683 136.548 31.4651 135.673 31.4651H132.952V34.1297ZM136.231 40.0829C137.405 40.0829 138.151 39.4121 138.151 38.3965C138.151 37.437 137.405 36.7663 136.231 36.7663H132.961V40.0829H136.231ZM158.144 43.0548L157.221 40.9865H151.054L150.113 43.0548H146.125L153.057 28.5024H155.181L162.112 43.0548H158.144ZM154.138 34.1297L152.451 37.8841H155.824L154.138 34.1297ZM168.317 43.0548V28.5024H171.997V39.8965H179.068V43.0548H168.317ZM78.7117 54.8401C81.8514 54.8401 83.808 56.722 83.808 59.3399C83.808 61.9764 81.8514 63.8584 78.7117 63.8584H76.0287V69.3924H72.3486V54.8401H78.7117ZM78.3858 60.7932C79.5968 60.7932 80.1839 60.1411 80.1839 59.3399C80.1839 58.5386 79.5875 57.9052 78.3858 57.9052H76.0287V60.7932H78.3858ZM100.186 69.3924L95.4535 63.8584H93.8604V69.3924H90.1804V54.8401H96.534C99.6738 54.8401 101.63 56.722 101.63 59.3399C101.63 61.082 100.773 62.4981 99.2733 63.2622L104.658 69.3924H100.186ZM96.2174 60.7932C97.4284 60.7932 98.0155 60.1411 98.0155 59.3399C98.0155 58.5386 97.4191 57.9052 96.2174 57.9052H93.8604V60.7932H96.2174ZM120.831 69.3924H109.968V54.8401H120.71V57.9984H113.639V60.6628H120.207V63.6162H113.639V66.2434H120.822V69.3924H120.831ZM138.011 63.1318L141.551 64.1286C140.703 67.4825 137.778 69.6998 134.238 69.6998C129.924 69.6998 126.58 66.3644 126.58 62.1349C126.58 57.9052 129.934 54.5699 134.238 54.5699C137.778 54.5699 140.713 56.8059 141.551 60.0852L138.011 61.1381C137.61 59.1257 136.129 57.8772 134.238 57.8772C131.955 57.8772 130.297 59.7313 130.297 62.1254C130.297 64.5198 131.965 66.3832 134.238 66.3832C136.138 66.3832 137.61 65.144 138.011 63.1318ZM147.84 69.3924V54.8401H151.52V69.3924H147.84ZM173.022 62.1349C173.022 66.3925 169.538 69.6812 165.243 69.6812C160.939 69.6812 157.445 66.3925 157.445 62.1349C157.445 57.9052 160.929 54.5699 165.243 54.5699C169.538 54.5699 173.022 57.9052 173.022 62.1349ZM169.323 62.1349C169.323 59.7406 167.525 57.8867 165.243 57.8867C162.96 57.8867 161.162 59.7406 161.162 62.1349C161.162 64.5479 162.96 66.3925 165.243 66.3925C167.525 66.3925 169.323 64.5479 169.323 62.1349ZM191.542 62.8615C191.542 67.0539 188.926 69.6998 185.012 69.6998C180.988 69.6998 178.314 67.0539 178.314 62.8615V54.8401H182.031V62.7311C182.031 64.9298 183.214 66.2342 185.022 66.2342C186.709 66.2342 187.853 64.9298 187.853 62.7311V54.8401H191.542V62.8615ZM209.868 58.7437L206.264 59.4703C205.956 57.9984 204.959 57.5698 204.101 57.5698C203.216 57.5698 202.526 58.0076 202.526 58.8181C202.526 59.3959 202.834 59.7591 203.469 59.9455L206.3 60.8491C208.694 61.6318 209.999 62.7405 209.999 65.023C209.999 68.3022 207.13 69.6812 204.278 69.6812C201.121 69.6812 198.549 68.0135 198.186 65.2371L201.959 64.4732C202.267 65.9081 203.123 66.523 204.39 66.523C205.463 66.523 206.114 66.0198 206.114 65.2559C206.114 64.6783 205.806 64.2776 205.005 64.0727L202.303 63.2901C200.105 62.6566 198.606 61.5293 198.606 59.1723C198.606 56.2003 200.943 54.5791 204.12 54.5791C207.149 54.5699 209.384 56.0233 209.868 58.7437ZM88.1028 95.7206H84.5065V87.8668L80.8453 91.9475H79.6156L75.9541 87.8668V95.7206H72.358V81.1683H74.659L80.2304 87.4663L85.8016 81.1683H88.1028V95.7206ZM106.177 95.7206H95.3138V81.1683H106.055V84.3265H98.9843V86.9911H105.552V89.9443H98.9843V92.5716H106.167V95.7206H106.177ZM120.561 84.3265V95.7206H116.881V84.3265H112.596V81.1683H124.856V84.3265H120.561ZM139.828 95.7206L138.905 93.6523H132.738L131.797 95.7206H127.809L134.741 81.1683H136.865L143.796 95.7206H139.828ZM135.831 86.7955L134.145 90.5499H137.517L135.831 86.7955ZM149.405 95.7206V81.1683H153.085V92.5623H160.156V95.7206H149.405ZM176.721 85.0719L173.125 85.7987C172.817 84.3265 171.82 83.898 170.963 83.898C170.078 83.898 169.389 84.336 169.389 85.1465C169.389 85.7241 169.696 86.0875 170.33 86.2738L173.162 87.1775C175.556 87.9599 176.86 89.0687 176.86 91.3511C176.86 94.6213 173.991 96.0001 171.131 96.0001C167.973 96.0001 165.41 94.3326 165.038 91.5562L168.811 90.7923C169.119 92.227 169.976 92.8418 171.243 92.8418C172.314 92.8418 172.966 92.3387 172.966 91.5748C172.966 90.9972 172.659 90.5965 171.858 90.3916L169.156 89.609C166.957 88.9755 165.466 87.8482 165.466 85.4912C165.466 82.5192 167.805 80.8982 170.982 80.8982C174 80.8982 176.236 82.3609 176.721 85.0719Z" fill="#BEA364"></path><path d="M47.3399 0H7.53104L0 7.53104V98.6057L7.53104 106.137H47.3466L54.8775 98.6057V7.53104L47.3399 0ZM13.1292 13.9251L16.5201 10.5341H38.3909L41.7552 13.9251V20.9746H38.1769V15.3095L37.0265 14.1257H17.8845L16.7006 15.3095V25.9172H13.1292V13.9251ZM29.8232 58.1415H33.3948V82.4936H29.8232V58.1415ZM10.4806 55.5063H8.3537V82.4936H4.77545V28.5658H25.0477V55.5063H19.3493V51.928H21.4761V32.1373H8.3537V51.928H10.4806V55.5063ZM41.7484 92.205L38.3842 95.596H16.5135L13.1225 92.205V34.7859H16.7006V90.8205L17.8845 92.0043H37.0198L38.1769 90.8205V55.4996H29.8232V51.9213H41.7484V92.205ZM50.0954 82.4936H46.5171V37.1871L39.9559 43.1798L33.3948 37.1871V49.3798H29.8165V28.519L39.9559 38.0766L50.0954 28.519V82.4936Z" fill="#BEA364"></path></svg>