<svg version="1.2" xmlns="http://www.w3.org/2000/svg" viewBox="0 0 36 69" width="36" height="69">
	<title>image</title>
	<style>
		.s0 { fill: #bea364 } 
	</style>
	<path class="s0" d="m30.5 0h-25.7l-4.8 4.8v58.6l4.8 4.9h25.7l4.8-4.9v-58.6zm-22 9l2.2-2.2h14l2.2 2.2v4.5h-2.3v-3.6l-0.7-0.8h-12.3l-0.8 0.8v6.8h-2.3zm18.4 50.4l-2.2 2.2h-14l-2.2-2.2v-37h2.3v36.1l0.8 0.7h12.3l0.7-0.7v-22.7h-5.4v-2.3h7.7zm-20.1-23.6h-1.4v17.3h-2.3v-34.7h13.1v17.4h-3.7v-2.4h1.4v-12.7h-8.5v12.7h1.4zm25.5 17.4h-2.3v-29.1l-4.2 3.8-4.3-3.8v7.8h-2.3v-13.4l6.6 6.1 6.5-6.1zm-13.1-15.7h2.3v15.7h-2.3z"/>
</svg>