<svg width="25" height="26" viewBox="0 0 25 26" fill="none" xmlns="http://www.w3.org/2000/svg">
<path d="M24.62 23.5858L18.457 17.1761C20.0422 15.2953 20.911 12.9146 20.9098 10.4549C20.9098 4.69017 16.2197 0 10.4549 0C4.69017 0 0 4.69017 0 10.4549C0 16.2197 4.69017 20.9098 10.4549 20.9098C12.6191 20.9098 14.6814 20.2571 16.4447 19.018L22.6545 25.4764C22.914 25.7459 23.2631 25.8946 23.6372 25.8946C23.9913 25.8946 24.3272 25.7596 24.5822 25.5141C24.8425 25.2632 24.9927 24.9192 24.9997 24.5578C25.0068 24.1963 24.8702 23.8468 24.62 23.5858ZM10.4549 2.72737C14.716 2.72737 18.1825 6.19386 18.1825 10.4549C18.1825 14.716 14.716 18.1825 10.4549 18.1825C6.19386 18.1825 2.72737 14.716 2.72737 10.4549C2.72737 6.19386 6.19386 2.72737 10.4549 2.72737Z" fill="#999999"/>
</svg>
