<svg width="18" height="16" viewBox="0 0 18 16" fill="none" xmlns="http://www.w3.org/2000/svg">
<path fill-rule="evenodd" clip-rule="evenodd" d="M9.52408 12.0992L13.008 15.5831C13.1713 15.7462 13.3926 15.8378 13.6234 15.8378C13.8542 15.8378 14.0756 15.7462 14.2389 15.5831L17.7228 12.0992C17.8084 12.0195 17.877 11.9233 17.9246 11.8165C17.9722 11.7096 17.9978 11.5943 17.9999 11.4774C18.0019 11.3604 17.9804 11.2442 17.9366 11.1358C17.8928 11.0273 17.8276 10.9288 17.7449 10.8461C17.6622 10.7634 17.5637 10.6982 17.4552 10.6544C17.3468 10.6106 17.2306 10.5891 17.1137 10.5912C16.9967 10.5932 16.8814 10.6188 16.7746 10.6664C16.6677 10.714 16.5716 10.7827 16.4918 10.8682L14.4944 12.8656V1.0321C14.4944 0.801105 14.4026 0.579571 14.2393 0.416233C14.076 0.252895 13.8544 0.161133 13.6234 0.161133C13.3924 0.161133 13.1709 0.252895 13.0076 0.416233C12.8442 0.579571 12.7525 0.801105 12.7525 1.0321V12.8656L10.755 10.8682C10.6753 10.7827 10.5792 10.714 10.4723 10.6664C10.3655 10.6188 10.2501 10.5932 10.1332 10.5912C10.0163 10.5891 9.9001 10.6106 9.79165 10.6544C9.68319 10.6982 9.58468 10.7634 9.50197 10.8461C9.41927 10.9288 9.35407 11.0273 9.31026 11.1358C9.26646 11.2442 9.24494 11.3604 9.24701 11.4774C9.24907 11.5943 9.27467 11.7096 9.32227 11.8165C9.36987 11.9233 9.43851 12.0195 9.52408 12.0992ZM4.9486 0.416616C4.78529 0.253513 4.56392 0.161899 4.33311 0.161899C4.10231 0.161899 3.88094 0.253513 3.71763 0.416616L0.233758 3.90049C0.0799102 4.06559 -0.00384546 4.28397 0.000135694 4.50961C0.00411685 4.73525 0.0955241 4.95054 0.2551 5.11011C0.414677 5.26969 0.629963 5.3611 0.855603 5.36508C1.08124 5.36906 1.29962 5.2853 1.46473 5.13145L3.46215 3.13404V14.9676C3.46215 15.1986 3.55391 15.4201 3.71725 15.5835C3.88058 15.7468 4.10212 15.8386 4.33311 15.8386C4.56411 15.8386 4.78564 15.7468 4.94898 15.5835C5.11232 15.4201 5.20408 15.1986 5.20408 14.9676V3.13404L7.2015 5.13145C7.28124 5.21703 7.37739 5.28566 7.48423 5.33327C7.59107 5.38087 7.7064 5.40647 7.82335 5.40853C7.94029 5.41059 8.05645 5.38908 8.1649 5.34528C8.27336 5.30147 8.37187 5.23627 8.45458 5.15356C8.53728 5.07086 8.60248 4.97234 8.64629 4.86389C8.69009 4.75544 8.71161 4.63928 8.70954 4.52233C8.70748 4.40539 8.68188 4.29006 8.63428 4.18322C8.58668 4.07638 8.51804 3.98022 8.43247 3.90049L4.9486 0.416616Z" fill="#828282"/>
</svg>
